<svg xmlns="http://www.w3.org/2000/svg" width="246" height="246" viewBox="0 0 246 246" fill="none">
  <path
    d="M193.187 75.4773C192.938 75.321 192.654 75.2337 192.362 75.2237C192.071 75.2137 191.782 75.2813 191.523 75.4202L157.854 93.5111C157.455 93.7259 157.154 94.096 157.019 94.5399C156.883 94.9838 156.924 95.4651 157.131 95.8781L158.439 98.4882C151.926 101.397 143.984 102.077 136.287 102.729C127.043 103.516 117.612 104.318 110.042 108.819C106.703 106.968 103.822 105.679 101.037 104.437C98.0616 103.186 95.1681 101.735 92.3752 100.093L93.74 98.051C93.8687 97.8608 93.9596 97.6462 94.0076 97.4195C94.0555 97.1928 94.0595 96.9585 94.0193 96.7302C93.9791 96.5018 93.8955 96.284 93.7733 96.0893C93.6512 95.8946 93.4929 95.7269 93.3076 95.5959L62.0845 73.3109C61.8445 73.1396 61.5659 73.0351 61.2755 73.0074C60.9851 72.9797 60.6928 73.0299 60.4266 73.153C60.1604 73.2761 59.9293 73.468 59.7557 73.7102C59.5821 73.9525 59.4718 74.2369 59.4353 74.536L52.0133 135.562C51.9744 135.881 52.0211 136.205 52.1483 136.499C52.2754 136.792 52.4782 137.044 52.7344 137.226L61.3808 143.401C61.6642 143.603 62.0005 143.711 62.3448 143.711C62.4474 143.71 62.5498 143.701 62.6509 143.683C63.0935 143.598 63.4858 143.336 63.7427 142.954L65.6535 140.092L65.6755 140.109C69.7778 142.882 72.9855 145.136 75.8745 147.286L74.03 150.277C73.2452 151.547 72.8051 153.012 72.7555 154.519C72.706 156.026 73.049 157.519 73.7485 158.842C74.448 160.164 75.4785 161.268 76.7321 162.039C77.9857 162.809 79.4164 163.216 80.8745 163.219C81.244 163.218 81.613 163.191 81.979 163.139C81.6322 164.809 81.7902 166.549 82.4317 168.123C83.0732 169.698 84.1671 171.03 85.5654 171.94C87.1916 172.999 89.1273 173.43 91.0309 173.157C90.5914 175.092 90.8284 177.125 91.6999 178.897C92.5715 180.669 94.0213 182.064 95.7926 182.837C97.564 183.609 99.5426 183.709 101.378 183.118C103.214 182.526 104.788 181.283 105.821 179.607L105.929 179.431C106.457 180.803 107.326 182.006 108.448 182.921C109.57 183.835 110.905 184.428 112.318 184.64C113.732 184.851 115.175 184.674 116.501 184.126C117.828 183.579 118.991 182.679 119.875 181.519L130.102 188.253C131.748 189.354 133.664 189.947 135.624 189.962C136.053 189.962 136.481 189.932 136.906 189.871C138.041 189.738 139.135 189.347 140.108 188.727C141.08 188.107 141.909 187.272 142.534 186.282C143.608 184.516 143.964 182.382 143.523 180.346C145.246 180.922 147.102 180.912 148.819 180.317C150.535 179.722 152.022 178.573 153.061 177.039C153.604 176.146 153.968 175.149 154.133 174.107C154.298 173.066 154.26 172 154.022 170.974C155.712 171.482 157.515 171.429 159.175 170.822C160.835 170.216 162.269 169.086 163.275 167.593C164.277 166 164.716 164.098 164.519 162.209C166.27 162.906 168.179 163.065 170.016 162.668C171.03 162.466 171.993 162.052 172.846 161.451C173.699 160.85 174.424 160.075 174.976 159.173C175.529 158.272 175.897 157.263 176.058 156.208C176.219 155.154 176.169 154.077 175.912 153.043C175.434 150.977 174.338 149.119 172.78 147.733C174.049 146.784 175.27 145.77 176.441 144.694C177.609 143.602 178.851 142.595 180.156 141.683L181.466 144.293C181.674 144.705 182.031 145.016 182.46 145.156C182.625 145.21 182.798 145.238 182.971 145.237C183.246 145.238 183.516 145.171 183.76 145.04L193.085 140.03C193.361 139.882 193.592 139.658 193.753 139.384C193.914 139.109 194 138.794 194 138.473V76.978C194 76.6768 193.926 76.3805 193.784 76.1177C193.641 75.8549 193.436 75.6343 193.187 75.4773ZM61.9141 139.517L55.5113 134.949L62.4537 77.8443L89.9816 97.4931L61.9141 139.517ZM78.339 158.942C77.282 158.238 76.5368 157.131 76.2657 155.862C75.9947 154.593 76.2199 153.264 76.8922 152.166L83.3738 141.662C83.7083 141.119 84.1437 140.65 84.6548 140.282C85.1659 139.914 85.7424 139.654 86.3511 139.518C86.694 139.439 87.0443 139.399 87.3956 139.399C88.2904 139.4 89.1663 139.666 89.9201 140.164C90.9804 140.865 91.7284 141.972 91.9999 143.243C92.2715 144.513 92.0444 145.843 91.3685 146.941L84.8869 157.444C84.2088 158.538 83.1392 159.31 81.912 159.591C80.6849 159.872 79.4001 159.638 78.339 158.942ZM87.3719 168.968C86.8518 168.627 86.4021 168.183 86.0489 167.662C85.6956 167.14 85.4457 166.551 85.3137 165.93C85.1817 165.308 85.1701 164.665 85.2796 164.039C85.3892 163.412 85.6177 162.814 85.9519 162.279L96.6526 145.187C97.3462 144.089 98.4287 143.315 99.6677 143.033C100.907 142.75 102.203 142.981 103.279 143.676C104.163 144.25 104.833 145.115 105.184 146.13C105.535 147.146 105.545 148.254 105.212 149.277L93.994 167.456C93.2999 168.552 92.2185 169.324 90.9809 169.606C89.7434 169.889 88.4481 169.66 87.3719 168.968ZM102.964 177.71C102.287 178.808 101.215 179.582 99.9854 179.863C98.7557 180.145 97.4683 179.909 96.4065 179.209C95.3446 178.509 94.5953 177.401 94.3234 176.13C94.0514 174.858 94.2792 173.527 94.9564 172.429L96.8498 169.353L107.562 152.283C107.85 151.822 108.094 151.334 108.292 150.825L108.42 150.616C108.755 150.073 109.19 149.603 109.702 149.235C110.213 148.867 110.79 148.608 111.399 148.472C111.741 148.393 112.091 148.353 112.442 148.353C113.29 148.359 114.121 148.599 114.848 149.049C115.576 149.499 116.174 150.142 116.58 150.912C116.986 151.681 117.186 152.549 117.158 153.425C117.13 154.302 116.876 155.154 116.422 155.895L108.881 168.116L106.621 171.777L102.964 177.71ZM110.936 180.441C109.88 179.738 109.134 178.632 108.862 177.364C108.59 176.096 108.814 174.768 109.485 173.669L113.709 166.826L115.97 163.16C116.303 162.617 116.737 162.147 117.248 161.778C117.758 161.409 118.334 161.148 118.942 161.01C119.285 160.931 119.635 160.891 119.987 160.891C120.882 160.892 121.757 161.158 122.511 161.656C123.572 162.357 124.32 163.464 124.591 164.735C124.863 166.005 124.636 167.335 123.96 168.433L117.48 178.943C116.802 180.037 115.732 180.81 114.505 181.09C113.278 181.371 111.993 181.137 110.932 180.441H110.936ZM172.105 157.33C171.784 157.827 171.371 158.254 170.889 158.584C170.407 158.915 169.867 159.144 169.299 159.257C167.587 159.601 165.813 159.232 164.361 158.232L160.364 155.575L160.323 155.547L146.686 146.477C146.499 146.345 146.288 146.252 146.065 146.206C145.843 146.159 145.614 146.159 145.391 146.205C145.169 146.252 144.957 146.344 144.77 146.476C144.583 146.609 144.423 146.779 144.3 146.976C144.177 147.173 144.094 147.394 144.055 147.625C144.016 147.857 144.022 148.094 144.074 148.322C144.125 148.551 144.22 148.767 144.353 148.957C144.487 149.146 144.655 149.307 144.85 149.428L158.479 158.493L158.531 158.528C159.13 158.851 159.658 159.298 160.082 159.842C160.506 160.386 160.816 161.015 160.994 161.689C161.172 162.363 161.213 163.067 161.115 163.759C161.017 164.45 160.782 165.112 160.424 165.705C158.97 168.061 155.492 168.464 152.673 166.604L140.725 158.727C140.346 158.476 139.886 158.392 139.446 158.492C139.006 158.592 138.623 158.869 138.381 159.262C138.139 159.654 138.057 160.13 138.154 160.584C138.251 161.039 138.519 161.435 138.898 161.686L147.72 167.504H147.729C149.088 168.372 150.106 169.709 150.601 171.279C150.814 171.915 150.889 172.591 150.821 173.26C150.754 173.929 150.544 174.574 150.208 175.15C148.755 177.506 145.277 177.909 142.458 176.049L134.458 170.772C134.078 170.521 133.618 170.436 133.177 170.536C132.737 170.636 132.353 170.913 132.11 171.306C131.867 171.699 131.785 172.176 131.882 172.631C131.979 173.086 132.247 173.483 132.627 173.734L137.183 176.741L137.199 176.752C138.559 177.619 139.576 178.957 140.071 180.527C140.301 181.16 140.385 181.84 140.317 182.513C140.249 183.185 140.03 183.832 139.678 184.402C139.326 184.973 138.85 185.45 138.288 185.796C137.726 186.143 137.094 186.35 136.442 186.4C134.856 186.598 133.254 186.207 131.921 185.299L121.74 178.576L126.83 170.327C127.637 169.021 128.08 167.51 128.109 165.96C128.138 164.411 127.753 162.883 126.995 161.546C126.237 160.208 125.136 159.114 123.814 158.383C122.492 157.652 121 157.313 119.504 157.404C120.282 155.989 120.645 154.371 120.551 152.747C120.457 151.123 119.909 149.562 118.974 148.253C118.038 146.945 116.755 145.945 115.281 145.376C113.807 144.806 112.204 144.691 110.668 145.045C109.96 145.207 109.276 145.465 108.633 145.812C108.149 143.695 106.878 141.861 105.094 140.707C103.556 139.717 101.745 139.276 99.941 139.453C98.1367 139.629 96.4387 140.414 95.1079 141.686C94.6269 140.173 93.7408 138.833 92.5524 137.82C91.364 136.807 89.9221 136.163 88.394 135.963C86.8659 135.763 85.3144 136.015 83.9195 136.691C82.5245 137.366 81.3434 138.436 80.5132 139.778L77.7047 144.329C74.8252 142.189 71.6302 139.942 67.5831 137.208L90.4439 102.984C93.4201 104.758 96.5104 106.319 99.693 107.656C101.952 108.664 104.278 109.705 106.839 111.047C102.712 114.488 99.5966 119.053 97.8454 124.227C97.457 125.264 97.3936 126.4 97.6639 127.477C97.9343 128.553 98.5249 129.514 99.3522 130.225C101.306 131.909 103.783 132.803 106.326 132.742C111.082 132.742 116.303 130.132 120.451 126.905C123.668 124.398 130.175 124.448 134.368 128.536C137.165 131.048 140.573 132.722 144.223 133.375L169.645 149.696C171.126 150.617 172.193 152.107 172.611 153.841C172.756 154.428 172.785 155.039 172.698 155.638C172.611 156.238 172.41 156.813 172.105 157.33ZM174.232 142.058C172.83 143.369 171.331 144.564 169.749 145.632L151.81 134.11C155.021 134.148 158.216 133.626 161.261 132.567C161.681 132.401 162.021 132.069 162.205 131.645C162.389 131.22 162.402 130.736 162.242 130.301C162.081 129.866 161.76 129.515 161.349 129.325C160.938 129.135 160.471 129.121 160.05 129.287C155.23 131.189 142.617 131.745 136.699 125.977C131.197 120.615 122.8 120.677 118.411 124.099C116.576 125.53 107.137 132.419 101.544 127.54C101.255 127.296 101.049 126.963 100.955 126.59C100.861 126.217 100.885 125.823 101.023 125.465C107.147 108.723 121.435 107.504 136.571 106.22C144.63 105.534 152.95 104.824 160.016 101.602L178.597 138.58C177.055 139.618 175.595 140.781 174.232 142.058ZM190.609 137.422L183.705 141.132L160.926 95.8161L190.609 79.8671V137.422Z"
    fill="#FAF7F6"
  />
</svg>
