<svg xmlns="http://www.w3.org/2000/svg" width="246" height="246" viewBox="0 0 246 246" fill="none">
  <path
    d="M154.05 130.174C157.621 127.231 160.506 123.456 162.485 119.142C164.463 114.828 165.482 110.089 165.462 105.291C165.461 100.963 164.623 96.6803 163.001 92.7086C161.38 88.737 159.008 85.1605 156.032 82.2001C153.12 79.2915 149.671 77.0574 145.902 75.64C142.133 74.2225 138.128 73.6526 134.14 73.9665C128.193 74.4977 122.535 76.9197 117.906 80.9163C113.276 84.9128 109.889 90.2982 108.188 96.3691C106.486 102.44 106.549 108.914 108.368 114.947C110.187 120.979 113.678 126.289 118.384 130.183C119.809 131.29 120.98 132.723 121.811 134.376C122.641 136.03 123.109 137.861 123.18 139.733L123.207 145.689C123.224 146.573 123.414 147.444 123.764 148.246C124.115 149.048 124.618 149.764 125.243 150.349V167.244C125.242 168.108 125.501 168.949 125.982 169.647C126.463 170.344 127.14 170.86 127.917 171.121L128.502 171.324C130.973 172.289 133.58 172.802 136.212 172.841C138.918 172.778 141.597 172.243 144.139 171.256L144.521 171.124C144.948 170.975 145.346 170.748 145.698 170.454L145.718 170.451C146.175 170.331 146.571 170.028 146.822 169.605C147.074 169.183 147.162 168.673 147.067 168.183C147.139 167.878 147.177 167.565 147.181 167.25V150.481C147.82 149.89 148.333 149.16 148.684 148.341C149.035 147.522 149.217 146.632 149.217 145.732L149.191 140.065C149.259 138.137 149.73 136.249 150.57 134.539C151.411 132.828 152.6 131.337 154.05 130.174ZM133.166 120.044C133.947 120.11 134.714 120.131 135.464 120.12C136.237 120.126 137.027 120.098 137.831 120.023C137.219 129.213 137.286 138.439 138.033 147.618H133.527C134.07 138.43 133.949 129.212 133.166 120.044ZM127.687 114.612C123.552 112.524 122.092 109.914 121.596 108.091C121.485 107.675 121.487 107.235 121.601 106.82C121.715 106.405 121.937 106.033 122.241 105.746C122.624 105.351 123.135 105.126 123.669 105.118C123.893 105.118 124.116 105.16 124.326 105.241C124.77 105.393 125.176 105.65 125.513 105.992C127.058 107.569 128.123 110.924 128.841 115.13C128.453 114.976 128.068 114.804 127.687 114.612ZM142.11 115.054C142.766 110.803 143.775 107.496 145.248 105.993C145.585 105.65 145.992 105.393 146.436 105.241C146.646 105.16 146.868 105.118 147.092 105.118C147.627 105.126 148.138 105.351 148.521 105.746C148.825 106.033 149.047 106.405 149.161 106.82C149.275 107.234 149.277 107.674 149.167 108.09C148.669 109.913 147.21 112.524 143.074 114.612C142.756 114.773 142.434 114.92 142.11 115.054ZM143.524 151.498V155.985C142.95 155.639 142.334 155.376 141.694 155.202C139.773 154.696 137.541 154.358 135.383 154.033C133.605 153.764 131.926 153.511 130.46 153.177C129.975 153.103 129.507 152.932 129.081 152.673C129.007 152.616 128.947 152.541 128.906 152.454C128.931 152.261 128.929 152.065 128.899 151.872V151.498H143.524ZM143.524 163.242C142.978 162.941 142.399 162.71 141.802 162.553C139.864 162.047 137.614 161.71 135.438 161.384C133.648 161.116 131.957 160.863 130.483 160.531C129.99 160.455 129.515 160.282 129.082 160.02C129.008 159.964 128.948 159.891 128.906 159.806C128.931 159.614 128.929 159.418 128.899 159.227V156.765C129.172 156.844 129.44 156.913 129.696 156.971C131.285 157.333 133.106 157.609 134.867 157.874C136.935 158.187 139.074 158.51 140.814 158.968C142.613 159.441 143.524 160.87 143.524 163.214L143.524 163.242ZM129.644 167.638L129.033 167.427C128.995 167.416 128.962 167.392 128.937 167.359C128.913 167.326 128.9 167.285 128.899 167.244V164.112C129.181 164.194 129.458 164.266 129.721 164.326C131.321 164.687 133.155 164.961 134.927 165.227C137.013 165.539 139.17 165.862 140.927 166.322C141.692 166.503 142.373 166.962 142.853 167.62C140.724 168.454 138.48 168.907 136.212 168.96C133.968 168.918 131.747 168.47 129.644 167.638ZM145.535 140.075L145.56 145.741C145.56 146.69 144.944 147.618 144.586 147.618H141.687C141.687 147.563 141.694 147.509 141.689 147.453C140.907 138.094 140.874 128.681 141.591 119.316C142.64 119.012 143.662 118.61 144.645 118.116C150.008 115.408 151.974 111.755 152.679 109.167C152.976 108.064 152.977 106.895 152.684 105.791C152.391 104.687 151.815 103.69 151.02 102.913C150.259 102.142 149.312 101.61 148.283 101.376C147.254 101.143 146.184 101.218 145.193 101.592C144.268 101.931 143.423 102.477 142.716 103.194C140.394 105.563 139.032 110.38 138.269 116.015C136.409 116.303 134.52 116.311 132.658 116.038C131.797 110.392 130.368 105.563 128.046 103.194C127.339 102.477 126.494 101.931 125.57 101.592C124.578 101.218 123.509 101.143 122.48 101.377C121.451 101.61 120.503 102.142 119.742 102.913C118.947 103.69 118.37 104.687 118.077 105.791C117.784 106.896 117.786 108.065 118.083 109.168C118.788 111.755 120.754 115.409 126.116 118.116C127.179 118.651 128.288 119.077 129.428 119.389C130.273 128.732 130.421 138.132 129.87 147.5C129.868 147.54 129.875 147.578 129.875 147.618H128C127.604 147.618 126.863 146.596 126.863 145.68L126.836 139.724C126.763 137.263 126.167 134.851 125.093 132.669C124.018 130.487 122.493 128.59 120.631 127.122C117.276 124.336 114.614 120.721 112.879 116.592C111.143 112.463 110.386 107.946 110.674 103.435C111.059 96.8515 113.671 90.6363 118.029 85.9332C122.387 81.2301 128.199 78.3552 134.395 77.8375C137.882 77.5632 141.385 78.0618 144.681 79.3015C147.976 80.5412 150.993 82.4949 153.539 85.0384C156.148 87.6354 158.227 90.7724 159.649 94.2559C161.071 97.7393 161.805 101.495 161.806 105.291C161.824 109.499 160.931 113.655 159.197 117.438C157.463 121.222 154.933 124.532 151.803 127.114C149.905 128.633 148.355 130.588 147.269 132.832C146.184 135.077 145.591 137.553 145.535 140.075Z"
    fill="#FAF7F6"
  />
  <path
    d="M148.263 62.6594C147.085 62.1393 145.873 61.6656 144.662 61.2526C138.794 59.296 132.673 58.3227 126.522 58.3678H126.46C123.151 58.3706 119.847 58.6621 116.582 59.2394C109.179 60.5544 90.9633 65.9411 81.7214 87.5071C78.9233 93.9214 78.1337 101.118 79.4683 108.043C79.9173 110.657 78.2186 113.805 76.5757 116.85C76.3294 117.307 76.0852 117.759 75.8505 118.205C74.8732 119.971 73.7648 121.651 72.5357 123.23C71.0734 125.02 69.8554 127.019 68.9173 129.17C68.6452 129.843 68.529 130.575 68.5785 131.306C68.6279 132.037 68.8416 132.744 69.2016 133.369C69.993 134.535 71.1539 135.359 72.4713 135.689C72.6244 135.742 72.774 135.794 72.915 135.849L73.3479 136.015C74.1029 136.235 74.8114 136.606 75.4358 137.108C75.821 137.495 74.9752 139.534 74.5208 140.629C73.5121 143.061 72.1308 146.39 74.69 148.523C75.2541 148.951 75.9179 149.206 76.6092 149.26C76.0153 149.933 75.6774 150.816 75.6607 151.738C75.7245 154.153 78.0325 154.638 79.1416 154.871C79.234 154.891 79.3433 154.913 79.4513 154.937C79.4274 156 79.3411 157.06 79.1929 158.112C78.8823 160.751 78.4953 164.037 79.2759 166.98C79.8021 168.844 80.8888 170.474 82.3698 171.62C84.2371 173.049 86.5365 173.695 88.8254 173.433C97.6879 172.437 106.235 169.38 113.857 164.48C114.547 169.72 114.476 176.536 111.848 179.197C111.497 179.553 111.294 180.041 111.283 180.555C111.272 181.069 111.453 181.567 111.788 181.939C112.122 182.311 112.582 182.527 113.067 182.54C113.551 182.552 114.02 182.36 114.371 182.005C119.176 177.141 117.874 166.164 117.22 162.232C118.112 161.581 118.961 160.865 119.76 160.09C120.112 159.738 120.319 159.253 120.335 158.74C120.35 158.227 120.174 157.729 119.845 157.354C119.515 156.978 119.059 156.757 118.576 156.738C118.093 156.719 117.622 156.903 117.267 157.251C115.998 158.457 114.614 159.518 113.137 160.418L112.793 160.641C105.436 165.53 97.1292 168.582 88.4992 169.567C87.1087 169.743 85.7062 169.367 84.5604 168.513C83.7227 167.878 83.103 166.971 82.7956 165.929C82.215 163.74 82.5368 161.005 82.8211 158.593C83.0978 156.24 83.3169 154.381 82.7635 152.947C82.2538 151.625 80.9755 151.303 79.9869 151.093C80.0597 151.015 80.1289 150.941 80.19 150.877C81.0947 149.918 82.1195 148.832 81.8262 147.357C81.466 145.545 79.6504 145.504 78.3248 145.475C77.8461 145.475 77.3679 145.445 76.8926 145.385C76.7609 144.86 77.5036 143.068 77.8669 142.193C78.8533 139.815 80.2043 136.559 77.9517 134.292C76.9712 133.401 75.8222 132.743 74.582 132.363L74.1772 132.208C73.9968 132.137 73.8072 132.07 73.613 132.003C72.9087 131.757 72.4673 131.585 72.2799 131.276C72.2409 131.173 72.223 131.062 72.2271 130.951C72.2313 130.84 72.2575 130.732 72.304 130.632C73.1221 128.822 74.1675 127.138 75.4117 125.626C76.7591 123.888 77.9733 122.04 79.0425 120.097C79.2715 119.662 79.5089 119.222 79.7486 118.778C81.6258 115.299 83.7538 111.355 83.0656 107.348C81.8495 101.202 82.5457 94.8036 85.0495 89.1138C93.5644 69.2446 110.36 64.2794 117.186 63.0668C120.252 62.5247 123.355 62.2509 126.464 62.2483H126.521C132.293 62.2033 138.036 63.114 143.543 64.9473C144.658 65.3272 145.774 65.763 146.86 66.2424C160.907 72.4392 171.518 87.8377 172.666 103.688C173.32 111.627 171.464 119.57 167.391 126.264C166.585 127.548 165.887 128.773 165.213 129.957C164.339 131.492 163.512 132.941 162.488 134.471C153.81 147.446 148.285 167.022 155.509 181.509C155.736 181.963 156.124 182.302 156.587 182.453C157.05 182.603 157.55 182.553 157.978 182.313C158.406 182.072 158.726 181.662 158.869 181.171C159.012 180.68 158.966 180.149 158.74 179.694C152.245 166.667 157.439 148.722 165.47 136.718C166.571 135.071 167.471 133.492 168.341 131.964C168.996 130.816 169.673 129.628 170.434 128.415C174.959 120.998 177.027 112.193 176.312 103.391C175.063 86.1428 163.529 69.3933 148.263 62.6594Z"
    fill="#FAF7F6"
  />
</svg>
