<?xml version="1.0" standalone="no"?>
<!DOCTYPE svg PUBLIC "-//W3C//DTD SVG 20010904//EN"
 "http://www.w3.org/TR/2001/REC-SVG-20010904/DTD/svg10.dtd">
<svg version="1.0" xmlns="http://www.w3.org/2000/svg"
 width="936.000000pt" height="936.000000pt" viewBox="0 0 936.000000 936.000000"
 preserveAspectRatio="xMidYMid meet">
<metadata>
Created by potrace 1.14, written by Peter Selinger 2001-2017
</metadata>
<g transform="translate(0.000000,936.000000) scale(0.100000,-0.100000)"
fill="#000000" stroke="none">
<path d="M360 8669 c-19 -5 -40 -11 -45 -12 -72 -17 -224 -136 -240 -187 -3
-11 -11 -20 -16 -20 -5 0 -9 -9 -9 -19 0 -11 -5 -23 -10 -26 -6 -4 -8 -11 -5
-16 4 -5 2 -9 -4 -9 -5 0 -15 -32 -22 -71 -22 -126 -1 -218 88 -379 56 -100
68 -120 76 -120 4 0 7 -5 7 -10 0 -6 10 -24 22 -41 13 -17 24 -45 24 -62 2
-47 11 -95 29 -154 9 -29 16 -55 16 -58 0 -20 85 -246 110 -292 67 -123 235
-463 244 -493 1 -3 16 -36 34 -75 18 -38 65 -142 103 -230 38 -88 75 -173 83
-190 7 -16 23 -54 35 -84 11 -30 30 -74 41 -97 10 -24 19 -47 19 -51 1 -4 9
-26 20 -48 11 -22 19 -44 20 -48 0 -5 7 -25 16 -45 9 -21 20 -46 24 -57 5 -11
18 -41 29 -67 11 -27 18 -48 15 -48 -3 0 1 -12 10 -27 16 -31 37 -81 54 -128
5 -16 26 -70 45 -120 20 -49 59 -151 87 -225 29 -74 58 -149 66 -167 8 -17 14
-34 14 -38 0 -3 11 -31 25 -61 14 -30 25 -59 25 -64 0 -6 4 -18 9 -28 6 -9 35
-82 66 -162 32 -80 63 -158 70 -175 7 -16 23 -57 35 -90 13 -33 30 -76 39 -95
8 -19 16 -38 17 -42 1 -5 3 -10 4 -13 1 -3 3 -8 4 -12 2 -5 7 -19 13 -33 7
-14 28 -68 48 -120 20 -52 41 -104 45 -115 22 -49 118 -292 125 -315 4 -14 15
-43 25 -65 10 -22 27 -65 39 -95 12 -30 26 -64 31 -75 4 -11 18 -47 31 -80 30
-81 107 -231 136 -265 12 -15 23 -30 23 -33 0 -31 270 -241 325 -251 6 -2 28
-10 49 -20 22 -9 64 -18 94 -21 45 -3 52 -1 42 11 -7 7 -15 12 -19 10 -3 -2
-15 2 -26 11 -19 13 -18 14 10 7 17 -4 59 -7 95 -6 212 6 261 5 320 -2 36 -4
66 -9 68 -11 1 -1 -6 -25 -17 -54 -12 -28 -18 -51 -15 -51 4 0 2 -6 -4 -12 -6
-7 -24 -53 -40 -103 -38 -114 -80 -230 -132 -370 -23 -60 -42 -114 -44 -120
-1 -5 -8 -21 -16 -35 -7 -14 -13 -27 -13 -30 0 -3 -4 -16 -9 -30 -6 -14 -11
-29 -12 -35 -2 -5 -13 -32 -24 -58 -12 -27 -25 -60 -28 -73 -3 -13 -10 -24
-15 -24 -5 0 -9 -7 -9 -15 0 -9 -23 -62 -52 -118 -133 -261 -123 -234 -122
-327 1 -47 3 -92 6 -100 3 -8 8 -28 13 -45 29 -114 143 -248 256 -302 63 -30
91 -39 159 -48 29 -4 425 -14 697 -18 40 0 70 -4 67 -9 -3 -4 1 -8 8 -9 45 -3
710 0 713 3 3 2 29 1 60 -2 30 -3 55 -3 55 0 0 6 64 5 80 -1 3 -1 10 0 15 1 6
1 114 4 240 5 302 4 872 15 1007 20 146 4 225 18 313 56 17 7 32 13 35 14 55
17 180 104 246 171 86 86 164 218 199 333 4 13 14 40 23 60 9 20 16 38 17 41
4 13 17 45 55 140 12 30 23 59 25 65 1 5 7 21 12 35 13 31 90 229 113 290 9
25 22 56 27 70 6 14 25 68 43 120 18 52 39 107 46 122 8 16 12 28 10 28 -4 0
26 94 43 135 5 11 21 49 35 85 14 36 44 95 66 130 22 36 88 178 146 315 58
138 111 264 119 280 7 17 21 53 31 80 10 28 23 59 30 70 7 11 13 24 12 28 0 9
17 56 43 114 11 24 19 47 19 53 0 6 4 18 10 28 10 19 81 202 84 217 2 9 47
129 87 230 7 17 13 35 15 40 6 19 96 260 104 280 5 11 26 65 45 120 20 55 40
109 45 120 22 49 90 240 90 252 0 7 4 13 8 13 5 0 9 6 9 13 1 12 83 237 107
292 8 17 17 41 21 55 4 14 13 39 21 55 66 149 101 275 76 275 -9 0 -43 -68
-71 -145 -26 -69 -88 -224 -110 -275 -8 -19 -15 -37 -16 -40 -3 -10 -39 -88
-89 -195 -78 -166 -162 -318 -192 -345 l-26 -25 21 42 c31 62 25 66 -10 6 -17
-29 -35 -53 -40 -53 -8 0 -2 25 11 45 6 10 44 105 45 115 0 3 6 15 13 26 6 12
8 24 5 28 -3 3 -1 6 5 6 7 0 12 6 12 14 0 8 12 43 26 78 15 35 33 79 41 98 8
19 18 44 23 55 5 11 23 56 41 100 17 44 37 94 44 110 7 17 60 147 118 290 123
305 124 307 150 365 11 25 20 50 22 55 1 6 7 21 13 35 20 47 100 245 132 325
29 74 47 119 70 170 5 11 19 45 30 75 11 30 25 66 31 80 6 14 17 39 24 55 7
17 23 56 35 88 13 32 24 56 27 54 6 -6 -16 -92 -35 -140 -7 -16 -12 -33 -12
-38 0 -6 -9 -30 -21 -55 -11 -25 -18 -55 -16 -67 l4 -22 8 23 c4 12 11 22 15
22 4 0 15 17 23 38 8 20 26 62 40 92 14 30 37 84 52 120 15 36 33 79 40 95 73
162 105 237 111 259 3 14 10 26 15 26 5 0 9 7 9 15 0 14 9 35 32 75 4 8 11 22
14 30 3 8 34 80 69 160 34 80 70 172 80 205 9 33 28 85 42 115 33 73 44 100
49 128 3 13 20 60 39 105 18 45 30 86 26 92 -4 5 -6 45 -5 88 1 42 -3 80 -7
83 -5 3 -9 14 -9 25 0 22 -40 112 -52 117 -4 2 -8 8 -8 13 0 6 -12 22 -26 37
l-26 27 18 -29 18 -29 -24 7 c-28 9 -87 32 -111 46 -24 13 -32 0 -11 -16 14
-12 12 -12 -18 -2 -19 6 -39 14 -45 19 -5 4 -28 10 -50 14 -35 6 -38 6 -22 -6
15 -12 -119 -13 -865 -8 -592 3 -898 9 -928 16 -25 6 -69 14 -99 18 -55 7
-323 8 -441 1 -75 -4 -244 -16 -310 -21 -25 -3 -97 -7 -160 -10 -128 -6 -209
-13 -220 -20 -3 -2 -18 -6 -33 -9 -29 -5 -135 -57 -177 -85 -86 -60 -67 -13
22 54 35 26 73 51 86 56 12 5 43 18 70 31 26 12 54 23 62 24 40 6 75 16 89 24
14 8 13 10 -4 11 -91 7 -117 5 -220 -15 -92 -19 -224 -96 -314 -184 -46 -45
-133 -169 -147 -208 -4 -10 -14 -27 -22 -36 -8 -10 -12 -18 -7 -18 4 0 2 -7
-6 -16 -21 -26 -239 -452 -239 -468 0 -2 -18 -44 -41 -93 -52 -113 -58 -128
-109 -248 -23 -55 -48 -113 -55 -130 -8 -16 -59 -138 -113 -270 -54 -132 -102
-249 -107 -260 -5 -11 -9 -23 -9 -27 -1 -3 -4 -10 -8 -14 -5 -4 -8 -17 -8 -28
0 -28 -149 275 -186 379 -10 28 -33 76 -51 108 -18 33 -33 65 -33 72 0 8 -4
16 -9 19 -9 6 -91 168 -91 180 0 3 -11 29 -24 58 -13 29 -43 100 -66 158 -24
58 -53 129 -66 158 -13 29 -24 54 -24 56 0 2 -8 21 -17 42 -9 22 -16 42 -15
47 1 4 -2 7 -6 7 -5 0 -9 6 -9 13 0 6 -9 33 -21 58 -11 25 -31 70 -42 100 -34
85 -86 194 -106 220 -35 45 -142 145 -171 159 -15 8 -35 20 -43 26 -8 7 -19
13 -25 15 -20 3 -40 11 -56 19 -18 9 -106 25 -129 22 -10 -1 -11 1 -2 4 6 3
12 10 12 16 0 6 -42 9 -107 7 -144 -2 -185 0 -179 9 5 8 -212 7 -364 -3 -270
-17 -345 -19 -363 -8 -6 3 -7 2 -4 -4 8 -13 -66 -11 -75 2 -4 6 -74 9 -173 8
-93 -1 -163 2 -160 6 3 5 16 8 30 6 14 -1 28 1 30 5 3 4 18 6 35 4 16 -2 30 0
30 4 0 5 -43 8 -95 6 -54 -1 -95 2 -95 8 0 5 -49 6 -122 2 -168 -9 -280 -9
-431 0 -89 5 -127 4 -122 -4 8 -13 -20 -13 -45 0 -10 5 -35 13 -56 16 -20 3
-43 11 -50 18 -11 12 -37 12 -120 3 -17 -2 -35 -6 -40 -9 -5 -3 -18 -3 -29 -1
-11 2 -36 6 -55 7 -19 2 -40 4 -47 5 -27 3 0 31 30 31 60 0 18 11 -59 15 -44
2 -79 5 -79 6 0 9 -351 17 -385 8z"/>
<path d="M3470 8520 c0 -5 5 -10 11 -10 5 0 7 5 4 10 -3 6 -8 10 -11 10 -2 0
-4 -4 -4 -10z"/>
</g>
</svg>
